<svg width="32" height="32" viewBox="0 0 32 32" fill="none" xmlns="http://www.w3.org/2000/svg">
<rect width="32" height="32" rx="4" fill="#0089CF"/>
<path d="M24 12.94C23.9896 12.8481 23.9695 12.7576 23.94 12.67V12.58C23.8919 12.4772 23.8278 12.3827 23.75 12.3L17.75 6.3C17.6673 6.22222 17.5728 6.15808 17.47 6.11C17.4402 6.10576 17.4099 6.10576 17.38 6.11C17.2784 6.05174 17.1662 6.01434 17.05 6H11C10.2044 6 9.44129 6.31607 8.87868 6.87868C8.31607 7.44129 8 8.20435 8 9V23C8 23.7956 8.31607 24.5587 8.87868 25.1213C9.44129 25.6839 10.2044 26 11 26H21C21.7956 26 22.5587 25.6839 23.1213 25.1213C23.6839 24.5587 24 23.7956 24 23V13C24 13 24 13 24 12.94ZM18 9.41L20.59 12H19C18.7348 12 18.4804 11.8946 18.2929 11.7071C18.1054 11.5196 18 11.2652 18 11V9.41ZM22 23C22 23.2652 21.8946 23.5196 21.7071 23.7071C21.5196 23.8946 21.2652 24 21 24H11C10.7348 24 10.4804 23.8946 10.2929 23.7071C10.1054 23.5196 10 23.2652 10 23V9C10 8.73478 10.1054 8.48043 10.2929 8.29289C10.4804 8.10536 10.7348 8 11 8H16V11C16 11.7956 16.3161 12.5587 16.8787 13.1213C17.4413 13.6839 18.2044 14 19 14H22V23ZM18.29 16.29L15 19.59L13.71 18.29C13.5217 18.1017 13.2663 17.9959 13 17.9959C12.7337 17.9959 12.4783 18.1017 12.29 18.29C12.1017 18.4783 11.9959 18.7337 11.9959 19C11.9959 19.2663 12.1017 19.5217 12.29 19.71L14.29 21.71C14.383 21.8037 14.4936 21.8781 14.6154 21.9289C14.7373 21.9797 14.868 22.0058 15 22.0058C15.132 22.0058 15.2627 21.9797 15.3846 21.9289C15.5064 21.8781 15.617 21.8037 15.71 21.71L19.71 17.71C19.8983 17.5217 20.0041 17.2663 20.0041 17C20.0041 16.7337 19.8983 16.4783 19.71 16.29C19.5217 16.1017 19.2663 15.9959 19 15.9959C18.7337 15.9959 18.4783 16.1017 18.29 16.29Z" fill="white"/>
</svg>
