<svg width="32" height="32" viewBox="0 0 32 32" fill="none" xmlns="http://www.w3.org/2000/svg">
<rect width="32" height="32" rx="4" fill="#0089CF"/>
<path d="M16 15C15.7348 15 15.4804 15.1054 15.2929 15.2929C15.1054 15.4804 15 15.7348 15 16V20C15 20.2652 15.1054 20.5196 15.2929 20.7071C15.4804 20.8946 15.7348 21 16 21C16.2652 21 16.5196 20.8946 16.7071 20.7071C16.8946 20.5196 17 20.2652 17 20V16C17 15.7348 16.8946 15.4804 16.7071 15.2929C16.5196 15.1054 16.2652 15 16 15ZM16.38 11.08C16.1365 10.98 15.8635 10.98 15.62 11.08C15.4973 11.1276 15.3851 11.199 15.29 11.29C15.2017 11.3872 15.1306 11.4988 15.08 11.62C15.024 11.7387 14.9966 11.8688 15 12C14.9992 12.1316 15.0245 12.2621 15.0742 12.3839C15.124 12.5057 15.1973 12.6166 15.29 12.71C15.3872 12.7983 15.4988 12.8694 15.62 12.92C15.7715 12.9822 15.936 13.0063 16.099 12.9901C16.2619 12.9739 16.4184 12.9179 16.5547 12.8271C16.691 12.7362 16.8029 12.6133 16.8805 12.4691C16.9582 12.3249 16.9992 12.1638 17 12C16.9963 11.7352 16.8927 11.4816 16.71 11.29C16.6149 11.199 16.5028 11.1276 16.38 11.08ZM16 6C14.0222 6 12.0888 6.58649 10.4443 7.6853C8.79981 8.78412 7.51809 10.3459 6.76121 12.1732C6.00433 14.0004 5.8063 16.0111 6.19215 17.9509C6.578 19.8907 7.53041 21.6725 8.92894 23.0711C10.3275 24.4696 12.1093 25.422 14.0491 25.8079C15.9889 26.1937 17.9996 25.9957 19.8268 25.2388C21.6541 24.4819 23.2159 23.2002 24.3147 21.5557C25.4135 19.9112 26 17.9778 26 16C26 14.6868 25.7413 13.3864 25.2388 12.1732C24.7363 10.9599 23.9997 9.85752 23.0711 8.92893C22.1425 8.00035 21.0401 7.26375 19.8268 6.7612C18.6136 6.25866 17.3132 6 16 6ZM16 24C14.4178 24 12.871 23.5308 11.5554 22.6518C10.2398 21.7727 9.21447 20.5233 8.60897 19.0615C8.00347 17.5997 7.84504 15.9911 8.15372 14.4393C8.4624 12.8874 9.22433 11.462 10.3432 10.3431C11.462 9.22433 12.8874 8.4624 14.4393 8.15372C15.9911 7.84504 17.5997 8.00346 19.0615 8.60896C20.5233 9.21447 21.7727 10.2398 22.6518 11.5554C23.5308 12.871 24 14.4177 24 16C24 18.1217 23.1572 20.1566 21.6569 21.6569C20.1566 23.1571 18.1217 24 16 24Z" fill="white"/>
</svg>
