<svg width="32" height="32" viewBox="0 0 32 32" fill="none" xmlns="http://www.w3.org/2000/svg">
<rect width="32" height="32" rx="4" fill="#0089CF"/>
<path d="M24.7043 20.71L22.2851 18.29C22.1921 18.1963 22.0816 18.1219 21.9598 18.0711C21.8379 18.0203 21.7073 17.9942 21.5753 17.9942C21.4433 17.9942 21.3127 18.0203 21.1909 18.0711C21.069 18.1219 20.9585 18.1963 20.8655 18.29L17.2867 21.87C17.194 21.9634 17.1207 22.0742 17.071 22.1961C17.0212 22.3179 16.996 22.4484 16.9968 22.58V25C16.9968 25.2652 17.1021 25.5196 17.2896 25.7071C17.4771 25.8946 17.7313 26 17.9965 26H20.4157C20.5472 26.0007 20.6777 25.9755 20.7995 25.9258C20.9213 25.876 21.032 25.8027 21.1254 25.71L24.7043 22.13C24.798 22.037 24.8724 21.9264 24.9231 21.8046C24.9739 21.6827 25 21.552 25 21.42C25 21.288 24.9739 21.1573 24.9231 21.0354C24.8724 20.9136 24.798 20.8029 24.7043 20.71ZM19.9958 24H18.9961V23L21.5753 20.42L22.575 21.42L19.9958 24ZM13.9977 24H9.99903C9.7339 24 9.47963 23.8946 9.29216 23.7071C9.10468 23.5196 8.99936 23.2652 8.99936 23V9C8.99936 8.73478 9.10468 8.48043 9.29216 8.29289C9.47963 8.10536 9.7339 8 9.99903 8H14.9974V11C14.9974 11.7956 15.3134 12.5587 15.8758 13.1213C16.4382 13.6839 17.2011 14 17.9965 14H20.9955V15C20.9955 15.2652 21.1008 15.5196 21.2883 15.7071C21.4758 15.8946 21.73 16 21.9952 16C22.2603 16 22.5146 15.8946 22.702 15.7071C22.8895 15.5196 22.9948 15.2652 22.9948 15V13C22.9948 13 22.9948 13 22.9948 12.94C22.9844 12.8481 22.9643 12.7576 22.9349 12.67V12.58C22.8868 12.4772 22.8227 12.3827 22.7449 12.3L16.7469 6.3C16.6642 6.22222 16.5697 6.15808 16.467 6.11C16.4371 6.10576 16.4068 6.10576 16.377 6.11L16.0571 6H9.99903C9.20364 6 8.44082 6.31607 7.8784 6.87868C7.31597 7.44129 7 8.20435 7 9V23C7 23.7956 7.31597 24.5587 7.8784 25.1213C8.44082 25.6839 9.20364 26 9.99903 26H13.9977C14.2629 26 14.5171 25.8946 14.7046 25.7071C14.8921 25.5196 14.9974 25.2652 14.9974 25C14.9974 24.7348 14.8921 24.4804 14.7046 24.2929C14.5171 24.1053 14.2629 24 13.9977 24ZM16.9968 9.41L19.5859 12H17.9965C17.7313 12 17.4771 11.8946 17.2896 11.7071C17.1021 11.5196 16.9968 11.2652 16.9968 11V9.41ZM11.9984 18H17.9965C18.2616 18 18.5159 17.8946 18.7033 17.7071C18.8908 17.5196 18.9961 17.2652 18.9961 17C18.9961 16.7348 18.8908 16.4804 18.7033 16.2929C18.5159 16.1053 18.2616 16 17.9965 16H11.9984C11.7333 16 11.479 16.1053 11.2915 16.2929C11.104 16.4804 10.9987 16.7348 10.9987 17C10.9987 17.2652 11.104 17.5196 11.2915 17.7071C11.479 17.8946 11.7333 18 11.9984 18ZM11.9984 14H12.9981C13.2632 14 13.5175 13.8946 13.7049 13.7071C13.8924 13.5196 13.9977 13.2652 13.9977 13C13.9977 12.7348 13.8924 12.4804 13.7049 12.2929C13.5175 12.1054 13.2632 12 12.9981 12H11.9984C11.7333 12 11.479 12.1054 11.2915 12.2929C11.104 12.4804 10.9987 12.7348 10.9987 13C10.9987 13.2652 11.104 13.5196 11.2915 13.7071C11.479 13.8946 11.7333 14 11.9984 14ZM13.9977 20H11.9984C11.7333 20 11.479 20.1053 11.2915 20.2929C11.104 20.4804 10.9987 20.7348 10.9987 21C10.9987 21.2652 11.104 21.5196 11.2915 21.7071C11.479 21.8946 11.7333 22 11.9984 22H13.9977C14.2629 22 14.5171 21.8946 14.7046 21.7071C14.8921 21.5196 14.9974 21.2652 14.9974 21C14.9974 20.7348 14.8921 20.4804 14.7046 20.2929C14.5171 20.1053 14.2629 20 13.9977 20Z" fill="white"/>
</svg>
