<svg width="21" height="16" viewBox="0 0 21 16" fill="none" xmlns="http://www.w3.org/2000/svg">
<path d="M13.7812 8C13.7812 8.87024 13.4355 9.70484 12.8202 10.3202C12.2048 10.9355 11.3702 11.2812 10.5 11.2812C9.62976 11.2812 8.79516 10.9355 8.17981 10.3202C7.56445 9.70484 7.21875 8.87024 7.21875 8C7.21875 7.12976 7.56445 6.29516 8.17981 5.67981C8.79516 5.06445 9.62976 4.71875 10.5 4.71875C11.3702 4.71875 12.2048 5.06445 12.8202 5.67981C13.4355 6.29516 13.7812 7.12976 13.7812 8Z" fill="#0089CF"/>
<path d="M0 8C0 8 3.9375 0.78125 10.5 0.78125C17.0625 0.78125 21 8 21 8C21 8 17.0625 15.2188 10.5 15.2188C3.9375 15.2188 0 8 0 8ZM10.5 12.5938C11.7183 12.5938 12.8868 12.1098 13.7483 11.2483C14.6098 10.3868 15.0938 9.21834 15.0938 8C15.0938 6.78166 14.6098 5.61322 13.7483 4.75173C12.8868 3.89023 11.7183 3.40625 10.5 3.40625C9.28166 3.40625 8.11322 3.89023 7.25173 4.75173C6.39023 5.61322 5.90625 6.78166 5.90625 8C5.90625 9.21834 6.39023 10.3868 7.25173 11.2483C8.11322 12.1098 9.28166 12.5938 10.5 12.5938Z" fill="#0089CF"/>
</svg>
