<svg width="21" height="15" viewBox="0 0 21 15" fill="none" xmlns="http://www.w3.org/2000/svg">
<path d="M13.7812 7.5C13.7812 8.37024 13.4355 9.20484 12.8202 9.82019C12.2048 10.4355 11.3702 10.7812 10.5 10.7812C9.62976 10.7812 8.79516 10.4355 8.17981 9.82019C7.56445 9.20484 7.21875 8.37024 7.21875 7.5C7.21875 6.62976 7.56445 5.79516 8.17981 5.17981C8.79516 4.56445 9.62976 4.21875 10.5 4.21875C11.3702 4.21875 12.2048 4.56445 12.8202 5.17981C13.4355 5.79516 13.7812 6.62976 13.7812 7.5Z" fill="#909399"/>
<path d="M0 7.5C0 7.5 3.9375 0.28125 10.5 0.28125C17.0625 0.28125 21 7.5 21 7.5C21 7.5 17.0625 14.7188 10.5 14.7188C3.9375 14.7188 0 7.5 0 7.5ZM10.5 12.0938C11.7183 12.0938 12.8868 11.6098 13.7483 10.7483C14.6098 9.88678 15.0938 8.71834 15.0938 7.5C15.0938 6.28166 14.6098 5.11322 13.7483 4.25173C12.8868 3.39023 11.7183 2.90625 10.5 2.90625C9.28166 2.90625 8.11322 3.39023 7.25173 4.25173C6.39023 5.11322 5.90625 6.28166 5.90625 7.5C5.90625 8.71834 6.39023 9.88678 7.25173 10.7483C8.11322 11.6098 9.28166 12.0937 10.5 12.0938V12.0938Z" fill="#909399"/>
</svg>
