<svg width="20" height="10" viewBox="0 0 20 10" fill="none" xmlns="http://www.w3.org/2000/svg">
<path fill-rule="evenodd" clip-rule="evenodd" d="M0 1C0 0.447715 0.447715 0 1 0H19C19.5523 0 20 0.447715 20 1C20 1.55228 19.5523 2 19 2H1C0.447715 2 0 1.55228 0 1ZM0 5C0 4.44772 0.447715 4 1 4H19C19.5523 4 20 4.44772 20 5C20 5.55228 19.5523 6 19 6H1C0.447715 6 0 5.55228 0 5ZM1 8C0.447715 8 0 8.44771 0 9C0 9.55228 0.447715 10 1 10H19C19.5523 10 20 9.55228 20 9C20 8.44771 19.5523 8 19 8H1Z" fill="#E5E5E5"/>
</svg>
